<?xml version="1.0" encoding="UTF-8" ?>
<svg version="1.1" width="1024" height="1024" xmlns="http://www.w3.org/2000/svg" shape-rendering="crispEdges">
<rect x="416" y="192" width="32" height="64" fill="#000000" />
<rect x="544" y="192" width="32" height="64" fill="#000000" />
<rect x="448" y="256" width="96" height="32" fill="#000000" />
<rect x="416" y="288" width="32" height="32" fill="#000000" />
<rect x="448" y="288" width="96" height="32" fill="#FFFFFF" />
<rect x="544" y="288" width="32" height="32" fill="#000000" />
<rect x="256" y="320" width="32" height="128" fill="#000000" />
<rect x="384" y="320" width="32" height="64" fill="#000000" />
<rect x="416" y="320" width="32" height="64" fill="#FFFFFF" />
<rect x="448" y="320" width="32" height="32" fill="#FF0000" />
<rect x="480" y="320" width="32" height="64" fill="#FFFFFF" />
<rect x="512" y="320" width="32" height="32" fill="#FF0000" />
<rect x="544" y="320" width="32" height="64" fill="#FFFFFF" />
<rect x="576" y="320" width="32" height="64" fill="#000000" />
<rect x="704" y="320" width="32" height="128" fill="#000000" />
<rect x="448" y="352" width="32" height="32" fill="#FFFFFF" />
<rect x="512" y="352" width="32" height="32" fill="#FFFFFF" />
<rect x="416" y="384" width="160" height="32" fill="#000000" />
<rect x="384" y="416" width="32" height="32" fill="#000000" />
<rect x="416" y="416" width="64" height="64" fill="#FFFFFF" />
<rect x="480" y="416" width="32" height="96" fill="#000000" />
<rect x="512" y="416" width="64" height="64" fill="#FFFFFF" />
<rect x="576" y="416" width="32" height="32" fill="#000000" />
<rect x="288" y="448" width="32" height="32" fill="#000000" />
<rect x="352" y="448" width="32" height="192" fill="#000000" />
<rect x="384" y="448" width="32" height="192" fill="#FFFFFF" />
<rect x="576" y="448" width="32" height="192" fill="#FFFFFF" />
<rect x="608" y="448" width="32" height="192" fill="#000000" />
<rect x="672" y="448" width="32" height="32" fill="#000000" />
<rect x="320" y="480" width="32" height="32" fill="#000000" />
<rect x="416" y="480" width="32" height="160" fill="#FFFFFF" />
<rect x="448" y="480" width="32" height="128" fill="#000000" />
<rect x="512" y="480" width="32" height="128" fill="#000000" />
<rect x="544" y="480" width="32" height="160" fill="#FFFFFF" />
<rect x="640" y="480" width="32" height="32" fill="#000000" />
<rect x="480" y="512" width="32" height="64" fill="#FF0000" />
<rect x="480" y="576" width="32" height="96" fill="#000000" />
<rect x="320" y="608" width="32" height="32" fill="#000000" />
<rect x="448" y="608" width="32" height="32" fill="#FFFFFF" />
<rect x="512" y="608" width="32" height="32" fill="#FFFFFF" />
<rect x="640" y="608" width="32" height="32" fill="#000000" />
<rect x="288" y="640" width="32" height="32" fill="#000000" />
<rect x="384" y="640" width="96" height="32" fill="#000000" />
<rect x="512" y="640" width="96" height="32" fill="#000000" />
<rect x="672" y="640" width="32" height="32" fill="#000000" />
<rect x="256" y="672" width="32" height="96" fill="#000000" />
<rect x="704" y="672" width="32" height="96" fill="#000000" />
</svg>