<?xml version="1.0" encoding="UTF-8" ?>
<svg version="1.1" width="1024" height="1024" xmlns="http://www.w3.org/2000/svg" shape-rendering="crispEdges">
<rect x="352" y="224" width="32" height="160" fill="#000000" />
<rect x="416" y="224" width="32" height="160" fill="#000000" />
<rect x="480" y="224" width="32" height="128" fill="#000000" />
<rect x="544" y="224" width="32" height="128" fill="#000000" />
<rect x="608" y="224" width="32" height="96" fill="#000000" />
<rect x="672" y="224" width="32" height="96" fill="#000000" />
<rect x="384" y="288" width="32" height="32" fill="#000000" />
<rect x="640" y="320" width="32" height="64" fill="#000000" />
<rect x="512" y="352" width="32" height="32" fill="#000000" />
<rect x="416" y="416" width="64" height="96" fill="#000000" />
<rect x="512" y="416" width="32" height="320" fill="#000000" />
<rect x="576" y="416" width="64" height="96" fill="#000000" />
<rect x="480" y="480" width="32" height="256" fill="#000000" />
<rect x="544" y="480" width="32" height="256" fill="#000000" />
<rect x="448" y="512" width="32" height="32" fill="#000000" />
<rect x="576" y="512" width="32" height="32" fill="#000000" />
<rect x="416" y="672" width="64" height="64" fill="#000000" />
<rect x="576" y="672" width="64" height="64" fill="#000000" />
</svg>