<?xml version="1.0" encoding="UTF-8" ?>
<svg version="1.1" width="1024" height="1024" xmlns="http://www.w3.org/2000/svg" shape-rendering="crispEdges">
<rect x="288" y="288" width="416" height="32" fill="#FFFFFF" />
<rect x="288" y="320" width="32" height="288" fill="#FFFFFF" />
<rect x="320" y="320" width="352" height="288" fill="#000000" />
<rect x="672" y="320" width="32" height="288" fill="#FFFFFF" />
<rect x="320" y="608" width="32" height="32" fill="#FFFFFF" />
<rect x="352" y="608" width="288" height="32" fill="#000000" />
<rect x="640" y="608" width="32" height="32" fill="#FFFFFF" />
<rect x="352" y="640" width="32" height="32" fill="#FFFFFF" />
<rect x="384" y="640" width="224" height="32" fill="#000000" />
<rect x="608" y="640" width="32" height="32" fill="#FFFFFF" />
<rect x="384" y="672" width="32" height="32" fill="#FFFFFF" />
<rect x="416" y="672" width="160" height="32" fill="#000000" />
<rect x="576" y="672" width="32" height="32" fill="#FFFFFF" />
<rect x="416" y="704" width="32" height="32" fill="#FFFFFF" />
<rect x="448" y="704" width="96" height="32" fill="#000000" />
<rect x="544" y="704" width="32" height="32" fill="#FFFFFF" />
<rect x="448" y="736" width="96" height="32" fill="#FFFFFF" />
</svg>