<?xml version="1.0" encoding="UTF-8" ?>
<svg version="1.1" width="32" height="32" xmlns="http://www.w3.org/2000/svg" shape-rendering="crispEdges">
<rect x="13" y="10" width="6" height="2" fill="#000000" />
<rect x="12" y="11" width="1" height="4" fill="#000000" />
<rect x="19" y="11" width="1" height="2" fill="#000000" />
<rect x="11" y="12" width="1" height="8" fill="#000000" />
<rect x="13" y="12" width="1" height="2" fill="#FF0000" />
<rect x="14" y="12" width="5" height="1" fill="#000000" />
<rect x="20" y="12" width="1" height="8" fill="#000000" />
<rect x="10" y="13" width="1" height="6" fill="#000000" />
<rect x="14" y="13" width="1" height="1" fill="#FF0000" />
<rect x="15" y="13" width="4" height="1" fill="#000000" />
<rect x="19" y="13" width="1" height="2" fill="#FF0000" />
<rect x="21" y="13" width="1" height="6" fill="#000000" />
<rect x="13" y="14" width="5" height="4" fill="#000000" />
<rect x="18" y="14" width="1" height="1" fill="#FF0000" />
<rect x="12" y="15" width="1" height="4" fill="#FF0000" />
<rect x="18" y="15" width="2" height="3" fill="#000000" />
<rect x="13" y="18" width="1" height="2" fill="#FF0000" />
<rect x="14" y="18" width="5" height="1" fill="#000000" />
<rect x="19" y="18" width="1" height="2" fill="#FF0000" />
<rect x="12" y="19" width="1" height="2" fill="#000000" />
<rect x="14" y="19" width="5" height="1" fill="#FF0000" />
<rect x="13" y="20" width="7" height="1" fill="#000000" />
<rect x="13" y="21" width="6" height="1" fill="#000000" />
</svg>